<?xml version="1.0" ?><svg id="Capa_1" style="enable-background:new 0 0 200 200;" version="1.1" viewBox="0 0 200 200" xml:space="preserve" xmlns="http://www.w3.org/2000/svg" xmlns:xlink="http://www.w3.org/1999/xlink"><g><path d="M153.3,157h-3.9c-1.6,0-2.8-1.3-2.8-2.8s1.3-2.8,2.8-2.8h3.9c10.7,0,19.4-8.7,19.4-19.4V50.7H51.6v14.9   c0,1.6-1.3,2.8-2.8,2.8S46,67.1,46,65.6V47.8c0-1.6,1.3-2.8,2.8-2.8h126.9c1.6,0,2.8,1.3,2.8,2.8v84   C178.4,145.7,167.2,157,153.3,157z"/><path d="M151.3,157H47.4c-14.2,0-25.8-11.6-25.8-25.8V65.5c0-1.6,1.3-2.8,2.8-2.8h126.9c1.6,0,2.8,1.3,2.8,2.8v63.2   c0,8.3,4.5,15.9,11.8,19.8c1.4,0.7,1.9,2.5,1.1,3.8c-0.8,1.4-2.5,1.9-3.8,1.1c-9.1-5-14.8-14.5-14.8-24.8V68.4H27.3v62.8   c0,11.1,9,20.1,20.1,20.1h103.9c1.6,0,2.8,1.3,2.8,2.8S152.8,157,151.3,157z"/><path d="M112.1,78.6h-13c-0.8,0-1.4-0.6-1.4-1.4s0.6-1.4,1.4-1.4h13.1c0.8,0,1.4,0.6,1.4,1.4S112.9,78.6,112.1,78.6z"/><path d="M139.4,78.6h-18.8c-0.8,0-1.4-0.6-1.4-1.4s0.6-1.4,1.4-1.4h18.8c0.8,0,1.4,0.6,1.4,1.4S140.2,78.6,139.4,78.6z"/><path d="M52.7,99.4H33.9c-0.8,0-1.4-0.6-1.4-1.4s0.6-1.4,1.4-1.4h18.8c0.8,0,1.4,0.6,1.4,1.4S53.5,99.4,52.7,99.4z"/><path d="M52.7,94.4H33.9c-0.8,0-1.4-0.6-1.4-1.4s0.6-1.4,1.4-1.4h18.8c0.8,0,1.4,0.6,1.4,1.4C54.1,93.8,53.5,94.4,52.7,94.4z"/><path d="M52.7,104.3H33.9c-0.8,0-1.4-0.6-1.4-1.4s0.6-1.4,1.4-1.4h18.8c0.8,0,1.4,0.6,1.4,1.4S53.5,104.3,52.7,104.3z"/><path d="M52.7,109.3H33.9c-0.8,0-1.4-0.6-1.4-1.4s0.6-1.4,1.4-1.4h18.8c0.8,0,1.4,0.6,1.4,1.4S53.5,109.3,52.7,109.3z"/><path d="M52.7,114.2H33.9c-0.8,0-1.4-0.6-1.4-1.4s0.6-1.4,1.4-1.4h18.8c0.8,0,1.4,0.6,1.4,1.4S53.5,114.2,52.7,114.2z"/><path d="M52.7,119.2H33.9c-0.8,0-1.4-0.6-1.4-1.4s0.6-1.4,1.4-1.4h18.8c0.8,0,1.4,0.6,1.4,1.4C54.1,118.6,53.5,119.2,52.7,119.2z"/><path d="M85.9,81H35.6c-1.6,0-2.8-1.3-2.8-2.8s1.3-2.8,2.8-2.8h50.3c1.6,0,2.8,1.3,2.8,2.8S87.5,81,85.9,81z"/><path d="M139.4,89.5H33.9c-0.8,0-1.4-0.6-1.4-1.4s0.6-1.4,1.4-1.4h105.5c0.8,0,1.4,0.6,1.4,1.4S140.2,89.5,139.4,89.5z"/><path d="M99.1,94.7H59.4c-0.8,0-1.4-0.6-1.4-1.4s0.6-1.4,1.4-1.4h39.7c0.8,0,1.4,0.6,1.4,1.4C100.5,94,99.8,94.7,99.1,94.7z"/><path d="M99.1,99.6H59.4c-0.8,0-1.4-0.6-1.4-1.4s0.6-1.4,1.4-1.4h39.7c0.8,0,1.4,0.6,1.4,1.4S99.8,99.6,99.1,99.6z"/><path d="M99.1,104.5H59.4c-0.8,0-1.4-0.6-1.4-1.4s0.6-1.4,1.4-1.4h39.7c0.8,0,1.4,0.6,1.4,1.4S99.8,104.5,99.1,104.5z"/><path d="M99.1,109.4H59.4c-0.8,0-1.4-0.6-1.4-1.4s0.6-1.4,1.4-1.4h39.7c0.8,0,1.4,0.6,1.4,1.4S99.8,109.4,99.1,109.4z"/><path d="M99.1,114.3H59.4c-0.8,0-1.4-0.6-1.4-1.4s0.6-1.4,1.4-1.4h39.7c0.8,0,1.4,0.6,1.4,1.4C100.5,113.7,99.8,114.3,99.1,114.3z"/><path d="M99.1,119.2H59.4c-0.8,0-1.4-0.6-1.4-1.4s0.6-1.4,1.4-1.4h39.7c0.8,0,1.4,0.6,1.4,1.4C100.5,118.6,99.8,119.2,99.1,119.2z"/><path d="M139.4,134.1h-35c-0.8,0-1.4-0.6-1.4-1.4c0-0.8,0.6-1.4,1.4-1.4h35c0.8,0,1.4,0.6,1.4,1.4   C140.8,133.4,140.2,134.1,139.4,134.1z"/><path d="M139.4,139h-35c-0.8,0-1.4-0.6-1.4-1.4c0-0.8,0.6-1.4,1.4-1.4h35c0.8,0,1.4,0.6,1.4,1.4C140.8,138.4,140.2,139,139.4,139z"/><path d="M139.4,144h-35c-0.8,0-1.4-0.6-1.4-1.4s0.6-1.4,1.4-1.4h35c0.8,0,1.4,0.6,1.4,1.4S140.2,144,139.4,144z"/><path d="M139.4,148.9h-35c-0.8,0-1.4-0.6-1.4-1.4s0.6-1.4,1.4-1.4h35c0.8,0,1.4,0.6,1.4,1.4S140.2,148.9,139.4,148.9z"/><path d="M164.6,71.1H153c-0.8,0-1.4-0.6-1.4-1.4s0.6-1.4,1.4-1.4h11.6c0.8,0,1.4,0.6,1.4,1.4S165.4,71.1,164.6,71.1z"/><path d="M164.6,76.1H153c-0.8,0-1.4-0.6-1.4-1.4s0.6-1.4,1.4-1.4h11.6c0.8,0,1.4,0.6,1.4,1.4S165.4,76.1,164.6,76.1z"/><path d="M164.6,81H153c-0.8,0-1.4-0.6-1.4-1.4s0.6-1.4,1.4-1.4h11.6c0.8,0,1.4,0.6,1.4,1.4S165.4,81,164.6,81z"/><path d="M164.6,86H153c-0.8,0-1.4-0.6-1.4-1.4s0.6-1.4,1.4-1.4h11.6c0.8,0,1.4,0.6,1.4,1.4S165.4,86,164.6,86z"/><path d="M164.6,91H153c-0.8,0-1.4-0.6-1.4-1.4s0.6-1.4,1.4-1.4h11.6c0.8,0,1.4,0.6,1.4,1.4C166,90.3,165.4,91,164.6,91z"/><path d="M164.6,95.9H153c-0.8,0-1.4-0.6-1.4-1.4s0.6-1.4,1.4-1.4h11.6c0.8,0,1.4,0.6,1.4,1.4S165.4,95.9,164.6,95.9z"/><path d="M164.6,100.9H153c-0.8,0-1.4-0.6-1.4-1.4s0.6-1.4,1.4-1.4h11.6c0.8,0,1.4,0.6,1.4,1.4S165.4,100.9,164.6,100.9z"/><path d="M164.6,105.8H153c-0.8,0-1.4-0.6-1.4-1.4s0.6-1.4,1.4-1.4h11.6c0.8,0,1.4,0.6,1.4,1.4C166,105.2,165.4,105.8,164.6,105.8z"/><path d="M164.6,110.8H153c-0.8,0-1.4-0.6-1.4-1.4s0.6-1.4,1.4-1.4h11.6c0.8,0,1.4,0.6,1.4,1.4S165.4,110.8,164.6,110.8z"/><path d="M164.6,115.7H153c-0.8,0-1.4-0.6-1.4-1.4s0.6-1.4,1.4-1.4h11.6c0.8,0,1.4,0.6,1.4,1.4S165.4,115.7,164.6,115.7z"/><path d="M164.6,120.7H153c-0.8,0-1.4-0.6-1.4-1.4s0.6-1.4,1.4-1.4h11.6c0.8,0,1.4,0.6,1.4,1.4C166,120,165.4,120.7,164.6,120.7z"/><path d="M164.6,125.6H153c-0.8,0-1.4-0.6-1.4-1.4s0.6-1.4,1.4-1.4h11.6c0.8,0,1.4,0.6,1.4,1.4S165.4,125.6,164.6,125.6z"/><path d="M100.1,124.1H33.9c-0.8,0-1.4-0.6-1.4-1.4s0.6-1.4,1.4-1.4h66.2c0.8,0,1.4,0.6,1.4,1.4S100.9,124.1,100.1,124.1z"/><path d="M64.2,129.1H33.9c-0.8,0-1.4-0.6-1.4-1.4s0.6-1.4,1.4-1.4h30.3c0.8,0,1.4,0.6,1.4,1.4C65.6,128.5,65,129.1,64.2,129.1z"/><path d="M100.1,129.1H69.8c-0.8,0-1.4-0.6-1.4-1.4s0.6-1.4,1.4-1.4h30.3c0.8,0,1.4,0.6,1.4,1.4   C101.5,128.5,100.9,129.1,100.1,129.1z"/><path d="M64.2,134.1H33.9c-0.8,0-1.4-0.6-1.4-1.4c0-0.8,0.6-1.4,1.4-1.4h30.3c0.8,0,1.4,0.6,1.4,1.4   C65.7,133.4,65,134.1,64.2,134.1z"/><path d="M100.1,134.1H69.8c-0.8,0-1.4-0.6-1.4-1.4c0-0.8,0.6-1.4,1.4-1.4h30.3c0.8,0,1.4,0.6,1.4,1.4   C101.5,133.4,100.9,134.1,100.1,134.1z"/><path d="M64.2,139H33.9c-0.8,0-1.4-0.6-1.4-1.4c0-0.8,0.6-1.4,1.4-1.4h30.3c0.8,0,1.4,0.6,1.4,1.4C65.7,138.4,65,139,64.2,139z"/><path d="M100.1,139H69.8c-0.8,0-1.4-0.6-1.4-1.4c0-0.8,0.6-1.4,1.4-1.4h30.3c0.8,0,1.4,0.6,1.4,1.4   C101.5,138.4,100.9,139,100.1,139z"/><path d="M64.2,144H33.9c-0.8,0-1.4-0.6-1.4-1.4s0.6-1.4,1.4-1.4h30.3c0.8,0,1.4,0.6,1.4,1.4S65,144,64.2,144z"/><path d="M100.1,144H69.8c-0.8,0-1.4-0.6-1.4-1.4s0.6-1.4,1.4-1.4h30.3c0.8,0,1.4,0.6,1.4,1.4S100.9,144,100.1,144z"/><path d="M64.2,148.9H33.9c-0.8,0-1.4-0.6-1.4-1.4s0.6-1.4,1.4-1.4h30.3c0.8,0,1.4,0.6,1.4,1.4S65,148.9,64.2,148.9z"/><path d="M100.1,148.9H69.8c-0.8,0-1.4-0.6-1.4-1.4s0.6-1.4,1.4-1.4h30.3c0.8,0,1.4,0.6,1.4,1.4S100.9,148.9,100.1,148.9z"/><path d="M139.4,128.3h-35c-0.8,0-1.4-0.6-1.4-1.4V93.2c0-0.8,0.6-1.4,1.4-1.4h35c0.8,0,1.4,0.6,1.4,1.4v33.7   C140.8,127.7,140.2,128.3,139.4,128.3z M105.9,125.5H138V94.7h-32.1V125.5z"/><path d="M68.5,58.2H56.3c-0.8,0-1.4-0.6-1.4-1.4c0-0.8,0.6-1.4,1.4-1.4h12.3c0.8,0,1.4,0.6,1.4,1.4C70,57.5,69.3,58.2,68.5,58.2z"/><path d="M168.6,58.2H76.3c-0.8,0-1.4-0.6-1.4-1.4c0-0.8,0.6-1.4,1.4-1.4h92.3c0.8,0,1.4,0.6,1.4,1.4   C170,57.5,169.4,58.2,168.6,58.2z"/><path d="M164.6,148.9c-0.8,0-1.4-0.6-1.4-1.4v-13.4h-11.6c-0.8,0-1.4-0.6-1.4-1.4c0-0.8,0.6-1.4,1.4-1.4h13c0.8,0,1.4,0.6,1.4,1.4   v14.9C166,148.3,165.4,148.9,164.6,148.9z"/></g></svg>