<?xml version="1.0" ?><svg viewBox="0 0 64 64" xmlns="http://www.w3.org/2000/svg"><defs><style>.cls-1{fill:#d8d8fc;}.cls-2{fill:#fdbf00;}.cls-3{fill:#4bb9ec;}.cls-4{fill:#f2f2fc;}.cls-5{fill:#f03800;}</style></defs><title/><g id="data"><path class="cls-1" d="M51,12V5H21V34H32a1,1,0,0,1,1,1V55H59V13H52A1,1,0,0,1,51,12ZM36.565,8a1,1,0,0,1,1-1A11.441,11.441,0,0,1,49,18.435a1,1,0,0,1-1,1H37.565a1,1,0,0,1-1-1ZM23,21.565A11.441,11.441,0,0,1,34.435,10.13a1,1,0,0,1,1,1v9.435H44.87a1,1,0,0,1,1,1,11.435,11.435,0,0,1-22.87,0ZM56,53H40a1,1,0,0,1,0-2H56a1,1,0,0,1,0,2Zm0-4H40a1,1,0,0,1,0-2H56a1,1,0,0,1,0,2Zm0-4H40a1,1,0,0,1,0-2H56a1,1,0,0,1,0,2Zm0-4H40a1,1,0,0,1,0-2H56a1,1,0,0,1,0,2Zm1-5a1,1,0,0,1-1,1H40a1,1,0,0,1,0-2H56A1,1,0,0,1,57,36Z"/><polygon class="cls-1" points="53 11 58.069 11 53 6.293 53 11"/><path class="cls-2" d="M34.435,22.565a1,1,0,0,1-1-1V12.183A9.435,9.435,0,1,0,43.817,22.565Z"/><path d="M45.87,21.565a1,1,0,0,0-1-1H35.435V11.13a1,1,0,0,0-1-1A11.435,11.435,0,1,0,45.87,21.565ZM34.435,31a9.435,9.435,0,0,1-1-18.817v9.382a1,1,0,0,0,1,1h9.382A9.441,9.441,0,0,1,34.435,31Z"/><path class="cls-3" d="M38.565,9.052v8.383h8.383A9.447,9.447,0,0,0,38.565,9.052Z"/><path d="M37.565,19.435H48a1,1,0,0,0,1-1A11.441,11.441,0,0,0,37.565,7a1,1,0,0,0-1,1V18.435A1,1,0,0,0,37.565,19.435Zm1-10.383a9.447,9.447,0,0,1,8.383,8.383H38.565Z"/><path d="M39,36a1,1,0,0,0,1,1H56a1,1,0,0,0,0-2H40A1,1,0,0,0,39,36Z"/><path d="M56,39H40a1,1,0,0,0,0,2H56a1,1,0,0,0,0-2Z"/><path d="M56,43H40a1,1,0,0,0,0,2H56a1,1,0,0,0,0-2Z"/><path d="M56,47H40a1,1,0,0,0,0,2H56a1,1,0,0,0,0-2Z"/><path d="M56,51H40a1,1,0,0,0,0,2H56a1,1,0,0,0,0-2Z"/><path class="cls-4" d="M5,36V59H31V36Zm8.677,19.963a1,1,0,0,1-1,1H7.586a1,1,0,0,1-1-1v-8.7a1,1,0,0,1,1-1h5.091a1,1,0,0,1,1,1Zm7.636,0a1,1,0,0,1-1,1H15.222a1,1,0,0,1-1-1V43.3a1,1,0,0,1,1-1h5.091a1,1,0,0,1,1,1Zm6.636-17a1,1,0,0,1,1,1v16a1,1,0,0,1-1,1h-5.09a1,1,0,0,1-1-1v-16a1,1,0,0,1,1-1Z"/><path d="M60.68,10.7l-8-7.429A1,1,0,0,0,52,3H20a1,1,0,0,0-1,1V34H4a1,1,0,0,0-1,1V60a1,1,0,0,0,1,1H32a1,1,0,0,0,1-1V57H60a1,1,0,0,0,1-1V11.429A1,1,0,0,0,60.68,10.7ZM31,59H5V36H31Zm28-4H33V35a1,1,0,0,0-1-1H21V5H51v7a1,1,0,0,0,1,1h7ZM53,11V6.293L58.069,11Z"/><rect class="cls-3" height="6.704" width="3.091" x="8.586" y="48.259"/><path d="M12.677,46.259H7.586a1,1,0,0,0-1,1v8.7a1,1,0,0,0,1,1h5.091a1,1,0,0,0,1-1v-8.7A1,1,0,0,0,12.677,46.259Zm-1,8.7H8.586v-6.7h3.091Z"/><rect class="cls-2" height="10.66" width="3.091" x="16.222" y="44.303"/><path d="M20.313,42.3H15.222a1,1,0,0,0-1,1v12.66a1,1,0,0,0,1,1h5.091a1,1,0,0,0,1-1V43.3A1,1,0,0,0,20.313,42.3Zm-1,12.66H16.222V44.3h3.091Z"/><polygon class="cls-5" points="23.859 54.963 26.949 54.963 26.949 40.963 23.859 40.963 23.859 54.963"/><path d="M21.859,39.963v16a1,1,0,0,0,1,1h5.09a1,1,0,0,0,1-1v-16a1,1,0,0,0-1-1h-5.09A1,1,0,0,0,21.859,39.963Zm5.09,1v14h-3.09v-14Z"/></g></svg>