<?xml version="1.0" ?><svg viewBox="0 0 24 24" xmlns="http://www.w3.org/2000/svg"><defs><style>.cls-1{fill:#eae2f9;}.cls-2{fill:#f94060;}.cls-3{fill:#c0c3ee;}.cls-4{fill:#96ccee;}.cls-5{fill:#9293a5;}.cls-6{fill:#6f7188;}.cls-7{fill:#d62657;}</style></defs><g id="Data"><polygon class="cls-1" points="20.63 18.88 20.63 4.94 9.68 4.94 3.1 5.16 3.1 18.88 20.63 18.88"/><path class="cls-2" d="M6.14,3.46a4.29,4.29,0,1,0,4.29,4.28A4.28,4.28,0,0,0,6.14,3.46h0m0,2.63h.05a1.63,1.63,0,1,1-.05,0"/><polygon class="cls-3" points="20.63 18.88 20.63 4.94 19.45 4.94 18.74 5.16 18.74 18.88 20.63 18.88"/><path class="cls-4" d="M14.27,13h3a1.14,1.14,0,1,1,0,2.28h-3a1.14,1.14,0,1,1,0-2.28"/><path class="cls-5" d="M1.86,17.1v2.09a1.35,1.35,0,0,0,1.36,1.35H20.51a1.34,1.34,0,0,0,1.35-1.35V17.1H15.31v1.31H8.41V17.1Z"/><path class="cls-6" d="M19.74,17.1v2.09a1.34,1.34,0,0,1-1.35,1.35h2.12a1.34,1.34,0,0,0,1.35-1.35V17.1Z"/><path class="cls-7" d="M6.14,3.46a4.74,4.74,0,0,0-.75.06,4.28,4.28,0,0,1,0,8.45,4.37,4.37,0,0,0,.72.06,4.29,4.29,0,0,0,0-8.57Z"/><path d="M3.22,21H20.51a1.85,1.85,0,0,0,1.85-1.85V17.1a.5.5,0,0,0-.5-.5h-.74V4.94a.5.5,0,0,0-.5-.5H9.68l-.07,0A4.76,4.76,0,0,0,6.15,3h0a4.76,4.76,0,0,0-3.54,8V16.6H1.86a.51.51,0,0,0-.5.5v2.09A1.85,1.85,0,0,0,3.22,21Zm16.9-15.6V16.6H15.31a.51.51,0,0,0-.5.5v.81H8.91V17.1a.5.5,0,0,0-.5-.5H3.6V11.78a4.74,4.74,0,0,0,2.55.75,4.91,4.91,0,0,0,1.49-.26l1.24,2.15a.52.52,0,0,0,.43.25h3.4a1.65,1.65,0,0,0,1.56,1.14h3a1.64,1.64,0,1,0,0-3.28h-3a1.65,1.65,0,0,0-1.56,1.14H9.6l-1-1.82a4.71,4.71,0,0,0,1.76-6.41Zm-6.49,8.72a.63.63,0,0,1,.64-.63h3a.64.64,0,1,1,0,1.28h-3a.64.64,0,0,1-.64-.64h0ZM6.64,4A3.77,3.77,0,0,1,9.88,7.24H8.23A2.18,2.18,0,0,0,6.64,5.65Zm-.5,2.58h0a1.15,1.15,0,0,1,0,2.3,1.15,1.15,0,0,1,0-2.3h0ZM2.36,7.74A3.77,3.77,0,0,1,5.64,4V5.65A2.15,2.15,0,1,0,8.23,8.24H9.88a3.78,3.78,0,0,1-7.52-.5Zm0,9.86H7.91v.81a.51.51,0,0,0,.5.5h6.9a.5.5,0,0,0,.5-.5V17.6h5.55v1.59a.85.85,0,0,1-.85.85H3.22a.85.85,0,0,1-.86-.85Z"/><path d="M17.26,10.31H13.54a.5.5,0,0,0-.5.5.5.5,0,0,0,.5.5h3.72a.5.5,0,0,0,.5-.5A.51.51,0,0,0,17.26,10.31Z"/><path d="M13.54,9.76h2.3a.5.5,0,0,0,.5-.5.5.5,0,0,0-.5-.5h-2.3a.5.5,0,0,0-.5.5A.5.5,0,0,0,13.54,9.76Z"/><path d="M13.54,8.21h3.72a.5.5,0,0,0,0-1H13.54a.5.5,0,1,0,0,1Z"/></g></svg>