<?xml version="1.0" encoding="UTF-8" standalone="no"?>
<svg
   xmlns:dc="http://purl.org/dc/elements/1.1/"
   xmlns:cc="http://creativecommons.org/ns#"
   xmlns:rdf="http://www.w3.org/1999/02/22-rdf-syntax-ns#"
   xmlns:svg="http://www.w3.org/2000/svg"
   xmlns="http://www.w3.org/2000/svg"
   xmlns:sodipodi="http://sodipodi.sourceforge.net/DTD/sodipodi-0.dtd"
   xmlns:inkscape="http://www.inkscape.org/namespaces/inkscape"
   sodipodi:docname="Server.svg"
   inkscape:version="1.0 (4035a4fb49, 2020-05-01)"
   id="svg831"
   version="1.1"
   viewBox="0 0 22.577778 22.577778"
   height="64pt"
   width="64pt"
   inkscape:export-filename="D:\Project ++\Flat\png\Brain Stroming.png"
   inkscape:export-xdpi="576"
   inkscape:export-ydpi="576">
  <defs
     id="defs825">
    <pattern
       y="0"
       x="0"
       height="6"
       width="6"
       patternUnits="userSpaceOnUse"
       id="EMFhbasepattern" />
    <pattern
       y="0"
       x="0"
       height="6"
       width="6"
       patternUnits="userSpaceOnUse"
       id="EMFhbasepattern-9" />
    <pattern
       y="0"
       x="0"
       height="6"
       width="6"
       patternUnits="userSpaceOnUse"
       id="EMFhbasepattern-0" />
    <pattern
       y="0"
       x="0"
       height="6"
       width="6"
       patternUnits="userSpaceOnUse"
       id="EMFhbasepattern-7" />
    <pattern
       y="0"
       x="0"
       height="6"
       width="6"
       patternUnits="userSpaceOnUse"
       id="EMFhbasepattern-2" />
    <pattern
       y="0"
       x="0"
       height="6"
       width="6"
       patternUnits="userSpaceOnUse"
       id="EMFhbasepattern-98" />
    <pattern
       y="0"
       x="0"
       height="6"
       width="6"
       patternUnits="userSpaceOnUse"
       id="EMFhbasepattern-6" />
    <pattern
       y="0"
       x="0"
       height="6"
       width="6"
       patternUnits="userSpaceOnUse"
       id="EMFhbasepattern-01" />
    <pattern
       y="0"
       x="0"
       height="6"
       width="6"
       patternUnits="userSpaceOnUse"
       id="EMFhbasepattern-07" />
    <pattern
       y="0"
       x="0"
       height="6"
       width="6"
       patternUnits="userSpaceOnUse"
       id="EMFhbasepattern-8" />
    <pattern
       y="0"
       x="0"
       height="6"
       width="6"
       patternUnits="userSpaceOnUse"
       id="EMFhbasepattern-4" />
    <pattern
       y="0"
       x="0"
       height="6"
       width="6"
       patternUnits="userSpaceOnUse"
       id="EMFhbasepattern-40" />
    <pattern
       y="0"
       x="0"
       height="6"
       width="6"
       patternUnits="userSpaceOnUse"
       id="EMFhbasepattern-08" />
    <pattern
       y="0"
       x="0"
       height="6"
       width="6"
       patternUnits="userSpaceOnUse"
       id="EMFhbasepattern-04" />
    <pattern
       y="0"
       x="0"
       height="6"
       width="6"
       patternUnits="userSpaceOnUse"
       id="EMFhbasepattern-014" />
    <pattern
       y="0"
       x="0"
       height="6"
       width="6"
       patternUnits="userSpaceOnUse"
       id="EMFhbasepattern-27" />
    <pattern
       y="0"
       x="0"
       height="6"
       width="6"
       patternUnits="userSpaceOnUse"
       id="EMFhbasepattern-09" />
    <pattern
       y="0"
       x="0"
       height="6"
       width="6"
       patternUnits="userSpaceOnUse"
       id="EMFhbasepattern-5" />
    <pattern
       y="0"
       x="0"
       height="6"
       width="6"
       patternUnits="userSpaceOnUse"
       id="EMFhbasepattern-018" />
  </defs>
  <sodipodi:namedview
     inkscape:document-rotation="0"
     inkscape:snap-global="true"
     inkscape:snap-nodes="false"
     inkscape:bbox-nodes="true"
     inkscape:snap-bbox="true"
     showguides="true"
     inkscape:snap-midpoints="true"
     inkscape:snap-smooth-nodes="true"
     inkscape:snap-intersection-paths="true"
     inkscape:object-paths="true"
     inkscape:showpageshadow="false"
     inkscape:pagecheckerboard="true"
     inkscape:window-maximized="1"
     inkscape:window-y="-8"
     inkscape:window-x="-8"
     inkscape:window-height="706"
     inkscape:window-width="1366"
     units="pt"
     showgrid="false"
     inkscape:current-layer="layer1"
     inkscape:document-units="pt"
     inkscape:cy="42.56527"
     inkscape:cx="42.682208"
     inkscape:zoom="4.2757863"
     inkscape:pageshadow="2"
     inkscape:pageopacity="0.0"
     borderopacity="1.0"
     bordercolor="#666666"
     pagecolor="#ffffff"
     id="base">
    <inkscape:grid
       id="grid1378"
       type="xygrid" />
    <sodipodi:guide
       inkscape:locked="false"
       id="guide1380"
       orientation="78.000048,0"
       position="0.97013831,21.607643" />
    <sodipodi:guide
       inkscape:locked="false"
       id="guide1382"
       orientation="0,78.000005"
       position="0.97013831,0.97013129" />
    <sodipodi:guide
       inkscape:locked="false"
       id="guide1384"
       orientation="-78.000048,0"
       position="21.607639,0.97013129" />
    <sodipodi:guide
       inkscape:locked="false"
       id="guide1386"
       orientation="0,-78.000005"
       position="21.607639,21.607643" />
  </sodipodi:namedview>
  <metadata
     id="metadata828">
    <rdf:RDF>
      <cc:Work
         rdf:about="">
        <dc:format>image/svg+xml</dc:format>
        <dc:type
           rdf:resource="http://purl.org/dc/dcmitype/StillImage" />
        <dc:title></dc:title>
      </cc:Work>
    </rdf:RDF>
  </metadata>
  <g
     transform="translate(0,-274.42223)"
     id="layer1"
     inkscape:groupmode="layer"
     inkscape:label="Icon">
    <g
       style="stroke-width:0.794873"
       id="g160777"
       transform="matrix(1.2580625,0,0,1.2580625,-114.48542,-192.4054)">
      <path
         style="color:#000000;clip-rule:evenodd;fill:#143441;fill-rule:evenodd;stroke-width:0.794873;stroke-linecap:round;stroke-linejoin:round;stroke-miterlimit:1.5"
         d="m 96.820312,371.83984 c -0.223747,0 -0.426231,0.10048 -0.5625,0.2461 -0.136268,0.14562 -0.21526,0.32911 -0.246093,0.52343 l -0.128907,0.82227 a 0.26460996,0.26460996 0 0 0 0.259766,0.30664 h 7.664062 a 0.26460996,0.26460996 0 0 0 0.26172,-0.30664 l -0.13086,-0.82031 c -0.0308,-0.19439 -0.1098,-0.37977 -0.24609,-0.52539 -0.13629,-0.14563 -0.33876,-0.2461 -0.5625,-0.2461 z"
         id="path2847" />
      <path
         id="path154958"
         style="color:#000000;clip-rule:evenodd;fill:#0f2437;fill-opacity:1;fill-rule:evenodd;stroke-width:0.794873;stroke-linecap:round;stroke-linejoin:round;stroke-miterlimit:1.5"
         d="m 96.820453,371.83987 c -0.22375,0 -0.42649,0.10036 -0.56276,0.24598 -0.087,0.093 -0.15059,0.20156 -0.19327,0.31833 0.0717,-0.0226 0.14788,-0.0351 0.22686,-0.0351 h 6.308657 c 0.22374,0 0.42595,0.10035 0.56224,0.24598 0.13629,0.14562 0.21518,0.33116 0.24598,0.52555 l 0.0956,0.5979 h 0.30282 a 0.26460996,0.26460996 0 0 0 0.262,-0.30696 l -0.13126,-0.82011 c -0.0308,-0.19439 -0.10968,-0.37993 -0.24597,-0.52555 -0.13629,-0.14563 -0.3385,-0.24598 -0.56224,-0.24598 z" />
      <path
         style="color:#000000;clip-rule:evenodd;fill:#394d5e;fill-rule:evenodd;stroke-width:0.794873;stroke-linecap:round;stroke-linejoin:round;stroke-miterlimit:1.5"
         d="m 95.802734,373.20898 c -0.421666,0 -0.746093,0.3679 -0.746093,0.78907 v 12.08789 c 0,0.42118 0.324434,0.78906 0.746093,0.78906 h 8.345706 c 0.42176,0 0.74414,-0.36803 0.74414,-0.78906 v -12.08789 c 0,-0.42102 -0.32238,-0.78907 -0.74414,-0.78907 z"
         id="path2855" />
      <path
         id="path2863"
         style="color:#000000;clip-rule:evenodd;fill:#143441;fill-rule:evenodd;stroke-width:3.00425;stroke-linecap:round;stroke-linejoin:round;stroke-miterlimit:1.5"
         d="m 364.41406,401.68359 a 1.0001006,1.0001006 0 0 0 -1.0039,1.00586 v 5.16602 a 1.0001006,1.0001006 0 0 0 1.0039,1.00391 h 4.08203 a 1.0001006,1.0001006 0 0 0 0.92969,-0.62696 l 2.06836,-5.17578 a 1.0001006,1.0001006 0 0 0 -0.92969,-1.37305 z m 20.73633,0 a 1.0001006,1.0001006 0 0 0 -0.92969,1.37305 l 2.07422,5.17578 a 1.0001006,1.0001006 0 0 0 0.92188,0.62696 h 4.08984 a 1.0001006,1.0001006 0 0 0 1.00391,-1.00391 v -5.16602 a 1.0001006,1.0001006 0 0 0 -1.00391,-1.00586 z"
         transform="matrix(0.26458334,0,0,0.26458334,0,280.06666)" />
      <path
         id="path147967"
         style="color:#000000;clip-rule:evenodd;fill:#0f2437;fill-opacity:1;fill-rule:evenodd;stroke-width:3.00425;stroke-linecap:round;stroke-linejoin:round;stroke-miterlimit:1.5"
         d="m 364.41406,401.68359 a 1.0001006,1.0001006 0 0 0 -1.0039,1.00586 v 2.9961 h 7.0332 l 1.05078,-2.62891 a 1.0001006,1.0001006 0 0 0 -0.92969,-1.37305 z m 20.73633,0 a 1.0001006,1.0001006 0 0 0 -0.92969,1.37305 l 1.05274,2.62891 h 7.03711 v -2.9961 a 1.0001006,1.0001006 0 0 0 -1.00391,-1.00586 z"
         transform="matrix(0.26458334,0,0,0.26458334,0,280.06666)" />
      <path
         id="path2879"
         style="color:#000000;fill:#808ea0;stroke-width:3.00425;stroke-linecap:round;stroke-linejoin:round;stroke-miterlimit:1.5"
         d="m 366.48047,385.13477 c -1.68293,0 -3.07031,1.38736 -3.07031,3.07031 v 5.20508 h 28.90039 v -5.20508 c 0,-1.68295 -1.38741,-3.07031 -3.07032,-3.07031 z m 25.83008,18.55028 v -8.27489 h -28.90039 v 8.27489 z"
         transform="matrix(0.26458334,0,0,0.26458334,0,280.06666)"
         sodipodi:nodetypes="ssccsssccccc" />
      <path
         style="color:#000000;fill:#808ea0;stroke-width:0.794873;stroke-linecap:round;stroke-linejoin:round;stroke-miterlimit:1.5"
         d="m 96.964844,377.58789 c -0.445269,0 -0.8125,0.36723 -0.8125,0.8125 v 2.18945 c 0,0.44527 0.367231,0.81055 0.8125,0.81055 h 6.021486 c 0.44527,0 0.8125,-0.36528 0.8125,-0.81055 v -2.18945 c 0,-0.44527 -0.36723,-0.8125 -0.8125,-0.8125 z"
         id="path2887" />
      <path
         style="color:#000000;fill:#f5f6e8;stroke-width:0.794873;stroke-linecap:round;stroke-linejoin:round;stroke-miterlimit:1.5"
         d="m 96.78125,374.30273 c -0.344181,0 -0.628906,0.28668 -0.628906,0.63086 v 1.45899 c 0,0.34418 0.284725,0.6289 0.628906,0.6289 h 6.38672 c 0.34418,0 0.63086,-0.28472 0.63086,-0.6289 v -1.45899 c 0,-0.34418 -0.28668,-0.63086 -0.63086,-0.63086 z"
         id="path2895" />
      <path
         style="color:#000000;clip-rule:evenodd;fill:#50b86b;fill-rule:evenodd;stroke-width:0.794873;stroke-linecap:round;stroke-linejoin:round;stroke-miterlimit:1.5"
         d="m 100.24805,375.39844 a 0.2645835,0.2645835 0 0 0 -0.263675,0.26367 0.2645835,0.2645835 0 0 0 0.263675,0.26562 h 2.1914 a 0.2645835,0.2645835 0 0 0 0.26368,-0.26562 0.2645835,0.2645835 0 0 0 -0.26368,-0.26367 z"
         id="path177020" />
      <path
         style="color:#000000;clip-rule:evenodd;fill:#eb305d;fill-rule:evenodd;stroke-width:0.794873;stroke-linecap:round;stroke-linejoin:round;stroke-miterlimit:1.5"
         d="m 97.510774,375.38944 a 0.27370697,0.27370697 0 0 0 -0.272764,0.27276 0.27370697,0.27370697 0 0 0 0.272764,0.27478 0.27370697,0.27370697 0 0 0 0.274784,-0.27478 0.27370697,0.27370697 0 0 0 -0.274784,-0.27276 z"
         id="path177022" />
      <path
         style="color:#000000;clip-rule:evenodd;fill:#eb305d;fill-rule:evenodd;stroke-width:0.794873;stroke-linecap:round;stroke-linejoin:round;stroke-miterlimit:1.5"
         d="m 98.606681,375.38944 a 0.27370697,0.27370697 0 0 0 -0.272764,0.27276 0.27370697,0.27370697 0 0 0 0.272764,0.27478 0.27370697,0.27370697 0 0 0 0.274784,-0.27478 0.27370697,0.27370697 0 0 0 -0.274784,-0.27276 z"
         id="path177024" />
      <path
         id="path160934"
         style="color:#000000;clip-rule:evenodd;fill:#143441;fill-rule:evenodd;stroke-width:3.00425;stroke-linecap:round;stroke-linejoin:round;stroke-miterlimit:1.5"
         d="m 382.75,372.71875 a 1.0000006,1.0000006 0 0 0 -0.99609,1.00391 1.0000006,1.0000006 0 0 0 0.99609,0.99609 h 5.69922 a 1.0000006,1.0000006 0 0 0 1.0039,-0.99609 1.0000006,1.0000006 0 0 0 -1.0039,-1.00391 z m 0,4.14063 a 1.0000006,1.0000006 0 0 0 -0.99609,0.99609 1.0000006,1.0000006 0 0 0 0.99609,1.00391 h 5.69922 a 1.0000006,1.0000006 0 0 0 1.0039,-1.00391 1.0000006,1.0000006 0 0 0 -1.0039,-0.99609 z"
         transform="matrix(0.26458334,0,0,0.26458334,0,280.06666)" />
      <path
         id="path173414"
         style="color:#000000;fill:#f5f6e8;stroke-width:3.00425;stroke-linecap:round;stroke-linejoin:round;stroke-miterlimit:1.5"
         d="m 368.54883,373.75977 a 1.0000006,1.0000006 0 0 0 -0.99805,0.99609 v 2.06641 a 1.0000006,1.0000006 0 0 0 0.99805,1.0039 1.0000006,1.0000006 0 0 0 1.0039,-1.0039 v -2.06641 a 1.0000006,1.0000006 0 0 0 -1.0039,-0.99609 z m 4.14062,0 a 1.0000006,1.0000006 0 0 0 -1.0039,0.99609 v 2.06641 a 1.0000006,1.0000006 0 0 0 1.0039,1.0039 1.0000006,1.0000006 0 0 0 0.9961,-1.0039 v -2.06641 a 1.0000006,1.0000006 0 0 0 -0.9961,-0.99609 z m 4.13477,0 a 1.0000006,1.0000006 0 0 0 -0.99805,0.99609 v 2.06641 a 1.0000006,1.0000006 0 0 0 0.99805,1.0039 1.0000006,1.0000006 0 0 0 1.0039,-1.0039 v -2.06641 a 1.0000006,1.0000006 0 0 0 -1.0039,-0.99609 z"
         transform="matrix(0.26458334,0,0,0.26458334,0,280.06666)" />
      <path
         id="path160932"
         style="color:#000000;clip-rule:evenodd;fill:#143441;fill-rule:evenodd;stroke-width:3.00425;stroke-linecap:round;stroke-linejoin:round;stroke-miterlimit:1.5"
         d="m 378.89062,389.27539 a 1.0000006,1.0000006 0 0 0 -0.99609,0.99609 1.0000006,1.0000006 0 0 0 0.99609,1.00391 h 8.28126 a 1.0000006,1.0000006 0 0 0 0.99804,-1.00391 1.0000006,1.0000006 0 0 0 -0.99804,-0.99609 z m 0,8.27539 a 1.0000006,1.0000006 0 0 0 -0.99609,0.9961 1.0000006,1.0000006 0 0 0 0.99609,1.0039 h 8.28126 a 1.0000006,1.0000006 0 0 0 0.99804,-1.0039 1.0000006,1.0000006 0 0 0 -0.99804,-0.9961 z"
         transform="matrix(0.26458334,0,0,0.26458334,0,280.06666)" />
      <path
         id="path160942"
         style="color:#000000;clip-rule:evenodd;fill:#f5f6e8;fill-rule:evenodd;stroke-width:3.00425;stroke-linecap:round;stroke-linejoin:round;stroke-miterlimit:1.5"
         d="m 368.54492,389.24023 a 1.034483,1.034483 0 0 0 -1.03125,1.03125 1.034483,1.034483 0 0 0 1.03125,1.03907 1.034483,1.034483 0 0 0 1.03906,-1.03907 1.034483,1.034483 0 0 0 -1.03906,-1.03125 z m 4.14258,0 a 1.034483,1.034483 0 0 0 -1.03125,1.03125 1.034483,1.034483 0 0 0 1.03125,1.03907 1.034483,1.034483 0 0 0 1.03711,-1.03907 1.034483,1.034483 0 0 0 -1.03711,-1.03125 z m -4.14258,8.27539 a 1.034483,1.034483 0 0 0 -1.03125,1.03126 1.034483,1.034483 0 0 0 1.03125,1.03906 1.034483,1.034483 0 0 0 1.03906,-1.03906 1.034483,1.034483 0 0 0 -1.03906,-1.03126 z m 4.14258,0 a 1.034483,1.034483 0 0 0 -1.03125,1.03126 1.034483,1.034483 0 0 0 1.03125,1.03906 1.034483,1.034483 0 0 0 1.03711,-1.03906 1.034483,1.034483 0 0 0 -1.03711,-1.03126 z"
         transform="matrix(0.26458334,0,0,0.26458334,0,280.06666)" />
      <path
         id="path128161"
         style="color:#000000;fill:#d0d9c3;fill-opacity:1;stroke-width:0.794873;stroke-linecap:round;stroke-linejoin:round;stroke-miterlimit:1.5"
         d="m 96.781175,374.3103 c -0.311915,0 -0.575083,0.23557 -0.621668,0.53589 0.03022,-0.005 0.06112,-0.007 0.0925,-0.007 h 6.386693 c 0.34418,0 0.63097,0.28678 0.63097,0.63096 v 1.45883 c 0,0.0314 -0.002,0.0623 -0.007,0.0925 0.30031,-0.0466 0.53588,-0.30975 0.53588,-0.62167 v -1.45882 c 0,-0.34418 -0.28679,-0.63097 -0.63097,-0.63097 z" />
      <path
         id="path144199"
         style="color:#000000;fill:#143441;fill-opacity:1;stroke-width:0.794873;stroke-linecap:round;stroke-linejoin:round;stroke-miterlimit:1.5"
         d="m 96.964597,377.58787 c -0.360072,0 -0.669031,0.24005 -0.774113,0.56741 0.07748,-0.0249 0.159727,-0.0382 0.244946,-0.0382 h 6.02185 c 0.44527,0 0.81236,0.36708 0.81236,0.81235 v 2.18953 c 0,0.0846 -0.0132,0.16651 -0.0377,0.2434 0.32712,-0.10474 0.56689,-0.41266 0.56689,-0.77256 v -2.18953 c 0,-0.44527 -0.36709,-0.81236 -0.81236,-0.81236 z" />
      <path
         id="path147790"
         style="color:#000000;fill:#143441;fill-opacity:1;stroke-width:0.794873;stroke-linecap:round;stroke-linejoin:round;stroke-miterlimit:1.5"
         d="m 103.79883,386.875 v -4.09877 c 0,-0.44527 -0.36709,-0.81236 -0.81236,-0.81236 l -6.021873,-4e-5 c -0.360072,0 -0.669031,0.24005 -0.774113,0.56741 0.07748,-0.0249 0.159727,-0.0382 0.244946,-0.0382 h 6.02185 c 0.44527,0 0.81236,0.36708 0.81236,0.81235 v 3.56961 z"
         sodipodi:nodetypes="cscccssscc" />
    </g>
  </g>
</svg>
