<?xml version="1.0" encoding="UTF-8" standalone="no"?>
<!-- Created with Inkscape (http://www.inkscape.org/) -->

<svg
   xmlns:dc="http://purl.org/dc/elements/1.1/"
   xmlns:cc="http://creativecommons.org/ns#"
   xmlns:rdf="http://www.w3.org/1999/02/22-rdf-syntax-ns#"
   xmlns:svg="http://www.w3.org/2000/svg"
   xmlns="http://www.w3.org/2000/svg"
   xmlns:sodipodi="http://sodipodi.sourceforge.net/DTD/sodipodi-0.dtd"
   xmlns:inkscape="http://www.inkscape.org/namespaces/inkscape"
   width="512mm"
   height="512mm"
   viewBox="0 0 512 512"
   version="1.1"
   id="svg1128"
   inkscape:version="0.92.3 (2405546, 2018-03-11)"
   sodipodi:docname="text.svg">
  <defs
     id="defs1122" />
  <sodipodi:namedview
     id="base"
     pagecolor="#ffffff"
     bordercolor="#666666"
     borderopacity="1.0"
     inkscape:pageopacity="0.0"
     inkscape:pageshadow="2"
     inkscape:zoom="0.36"
     inkscape:cx="396.85039"
     inkscape:cy="1116.8154"
     inkscape:document-units="mm"
     inkscape:current-layer="layer1"
     showgrid="false"
     inkscape:window-width="1853"
     inkscape:window-height="1025"
     inkscape:window-x="67"
     inkscape:window-y="27"
     inkscape:window-maximized="1" />
  <metadata
     id="metadata1125">
    <rdf:RDF>
      <cc:Work
         rdf:about="">
        <dc:format>image/svg+xml</dc:format>
        <dc:type
           rdf:resource="http://purl.org/dc/dcmitype/StillImage" />
        <dc:title></dc:title>
      </cc:Work>
    </rdf:RDF>
  </metadata>
  <g
     inkscape:label="Capa 1"
     inkscape:groupmode="layer"
     id="layer1"
     transform="translate(0,215)">
    <g
       transform="matrix(3.7002622,0,0,-3.7002622,-1695.2253,3323.9263)"
       id="g4325">
      <path
         inkscape:connector-curvature="0"
         id="path554"
         style="fill:#ffb612;fill-opacity:1;fill-rule:nonzero;stroke:none"
         d="m 556,888 h 8 v 4 h -8 z" />
      <path
         inkscape:connector-curvature="0"
         id="path556"
         style="fill:#ffb612;fill-opacity:1;fill-rule:nonzero;stroke:none"
         d="m 556,879 h 8 v 4 h -8 z" />
      <path
         inkscape:connector-curvature="0"
         id="path558"
         style="fill:#ffb612;fill-opacity:1;fill-rule:nonzero;stroke:none"
         d="m 556,870 h 8 v 4 h -8 z" />
      <path
         inkscape:connector-curvature="0"
         id="path560"
         style="fill:#ffb612;fill-opacity:1;fill-rule:nonzero;stroke:none"
         d="m 576,852 h 8 v 4 h -8 z" />
      <path
         inkscape:connector-curvature="0"
         id="path562"
         style="fill:#ffb612;fill-opacity:1;fill-rule:nonzero;stroke:none"
         d="m 576,861 h 8 v 4 h -8 z" />
      <g
         transform="translate(518,920)"
         id="g564">
        <path
           inkscape:connector-curvature="0"
           id="path566"
           style="fill:#ffb612;fill-opacity:1;fill-rule:nonzero;stroke:none"
           d="m 0,0 h 4 v 5 h 7 V -19 H 7 v -4 h 12 v 4 H 15 V 5 h 7 V 0 h 4 V 9 H 0 Z" />
      </g>
      <g
         transform="translate(511,854.5)"
         id="g568">
        <path
           inkscape:connector-curvature="0"
           id="path570"
           style="fill:#e0e0e0;fill-opacity:1;fill-rule:nonzero;stroke:none"
           d="m 0,0 c -2.76,0 -5,2.24 -5,5 0,2.76 2.24,5 5,5 C 2.76,10 5,7.76 5,5 5,2.24 2.76,0 0,0 m 32.68,21.05 c -0.4,0.96 -1.17,1.73 -2.13,2.13 -0.47,0.21 -1,0.32 -1.55,0.32 h -58 c -0.55,0 -1.08,-0.11 -1.55,-0.32 -0.96,-0.4 -1.73,-1.17 -2.13,-2.13 -0.21,-0.47 -0.32,-1 -0.32,-1.55 v -29 c 0,-0.55 0.11,-1.08 0.32,-1.55 0.4,-0.96 1.17,-1.73 2.13,-2.13 0.47,-0.21 1,-0.32 1.55,-0.32 h 58 c 0.55,0 1.08,0.11 1.55,0.32 0.96,0.4 1.73,1.17 2.13,2.13 0.21,0.47 0.32,1 0.32,1.55 v 29 c 0,0.55 -0.11,1.08 -0.32,1.55" />
      </g>
      <g
         transform="translate(582,892)"
         id="g572">
        <path
           inkscape:connector-curvature="0"
           id="path574"
           style="fill:#e0e0e0;fill-opacity:1;fill-rule:nonzero;stroke:none"
           d="m 0,0 h -4 v -22 h 4 c 1.1,0 2,0.9 2,2 V -2 C 2,-0.9 1.1,0 0,0" />
      </g>
      <g
         transform="translate(562,865)"
         id="g576">
        <path
           inkscape:connector-curvature="0"
           id="path578"
           style="fill:#e0e0e0;fill-opacity:1;fill-rule:nonzero;stroke:none"
           d="m 0,0 h -4 v -13 h 4 c 1.1,0 2,0.9 2,2 v 9 C 2,-0.9 1.1,0 0,0" />
      </g>
      <g
         transform="translate(588,846)"
         id="g580">
        <path
           inkscape:connector-curvature="0"
           id="path582"
           style="fill:#262626;fill-opacity:1;fill-rule:nonzero;stroke:none"
           d="m 0,0 c 0,-2.76 -2.24,-5 -5,-5 h -5 v 59 c 0,2.76 2.24,5 5,5 2.76,0 5,-2.24 5,-5 z M -14,54 V -7 c 0,-4.41 -3.59,-8 -8,-8 -4.41,0 -8,3.59 -8,8 v 66 h 17.52 C -13.44,57.57 -14,55.85 -14,54 m -100,-69 c -3.31,0 -6,2.69 -6,6 v 82 h 10 c 5.51,0 10,4.49 10,10 v 10 h 60 c 3.31,0 6,-2.69 6,-6 V -7 c 0,-3.07 1.16,-5.88 3.06,-8 z m -6,102 c 0,3.31 2.69,6 6,6 h 10 V 83 c 0,-3.31 -2.69,-6 -6,-6 h -10 z M -5,63 h -25 v 24 c 0,5.51 -4.49,10 -10,10 h -74 c -5.51,0 -10,-4.49 -10,-10 V -9 c 0,-5.51 4.49,-10 10,-10 h 92 c 5.94,0 10.88,4.33 11.83,10 H -5 c 4.96,0 9,4.04 9,9 v 54 c 0,4.96 -4.04,9 -9,9" />
      </g>
      <path
         inkscape:connector-curvature="0"
         id="path584"
         style="fill:#262626;fill-opacity:1;fill-rule:nonzero;stroke:none"
         d="m 514,928 h -18 v -4 h 18 z" />
      <path
         inkscape:connector-curvature="0"
         id="path586"
         style="fill:#262626;fill-opacity:1;fill-rule:nonzero;stroke:none"
         d="m 514,919 h -18 v -4 h 18 z" />
      <path
         inkscape:connector-curvature="0"
         id="path588"
         style="fill:#262626;fill-opacity:1;fill-rule:nonzero;stroke:none"
         d="m 514,910 h -36 v -4 h 36 z" />
      <path
         inkscape:connector-curvature="0"
         id="path590"
         style="fill:#262626;fill-opacity:1;fill-rule:nonzero;stroke:none"
         d="m 514,901 h -36 v -4 h 36 z" />
      <path
         inkscape:connector-curvature="0"
         id="path592"
         style="fill:#262626;fill-opacity:1;fill-rule:nonzero;stroke:none"
         d="m 478,888 h 66 v 4 h -66 z" />
      <g
         transform="translate(482,851)"
         id="g594">
        <path
           inkscape:connector-curvature="0"
           id="path596"
           style="fill:#262626;fill-opacity:1;fill-rule:nonzero;stroke:none"
           d="m 0,0 h -4 v -6 c 0,-2.206 1.794,-4 4,-4 h 6 v 4 H 0 Z" />
      </g>
      <g
         transform="translate(540,845)"
         id="g598">
        <path
           inkscape:connector-curvature="0"
           id="path600"
           style="fill:#262626;fill-opacity:1;fill-rule:nonzero;stroke:none"
           d="m 0,0 h -6 v -4 h 6 c 2.206,0 4,1.794 4,4 V 6 H 0 Z" />
      </g>
      <g
         transform="translate(540,878)"
         id="g602">
        <path
           inkscape:connector-curvature="0"
           id="path604"
           style="fill:#262626;fill-opacity:1;fill-rule:nonzero;stroke:none"
           d="m 0,0 h -6 v -4 h 6 v -6 h 4 v 6 C 4,-1.794 2.206,0 0,0" />
      </g>
      <g
         transform="translate(478,874)"
         id="g606">
        <path
           inkscape:connector-curvature="0"
           id="path608"
           style="fill:#262626;fill-opacity:1;fill-rule:nonzero;stroke:none"
           d="m 0,0 v -6 h 4 v 6 h 6 V 4 H 4 C 1.794,4 0,2.206 0,0" />
      </g>
      <g
         transform="translate(511,854.5)"
         id="g610">
        <path
           inkscape:connector-curvature="0"
           id="path612"
           style="fill:#262626;fill-opacity:1;fill-rule:nonzero;stroke:none"
           d="m 0,0 c -2.76,0 -5,2.24 -5,5 0,2.76 2.24,5 5,5 C 2.76,10 5,7.76 5,5 5,2.24 2.76,0 0,0 m 0,14 c -4.96,0 -9,-4.04 -9,-9 0,-4.96 4.04,-9 9,-9 4.96,0 9,4.04 9,9 0,4.96 -4.04,9 -9,9" />
      </g>
      <g
         transform="translate(480,930)"
         id="g614">
        <path
           inkscape:connector-curvature="0"
           id="path616"
           style="fill:#262626;fill-opacity:1;fill-rule:nonzero;stroke:none"
           d="M 0,0 V 5 H -5 C -6.654,5 -8,3.654 -8,2 v -5 h 5 c 1.654,0 3,1.346 3,3" />
      </g>
    </g>
  </g>
</svg>
