<?xml version="1.0" ?><svg height="32" id="svg4063" version="1.1" viewBox="0 0 32 32.000001" width="32" xmlns="http://www.w3.org/2000/svg" xmlns:cc="http://creativecommons.org/ns#" xmlns:dc="http://purl.org/dc/elements/1.1/" xmlns:inkscape="http://www.inkscape.org/namespaces/inkscape" xmlns:rdf="http://www.w3.org/1999/02/22-rdf-syntax-ns#" xmlns:sodipodi="http://sodipodi.sourceforge.net/DTD/sodipodi-0.dtd" xmlns:svg="http://www.w3.org/2000/svg"><defs id="defs4065"/><g id="layer1" transform="translate(0,-1020.3621)"><g id="g6305"><path d="m 4.51935,1040.3621 0,-13.1065 c 0,-0.8238 0.66323,-1.4871 1.48707,-1.4871 l 20.00006,0 c 0.82384,0 1.48707,0.6633 1.48707,1.4871 l 0,13.1065 c 0,0.8238 -0.66323,1.4871 -1.48707,1.4871 l -14.00006,0 -1.49997,0.013 -6,6 0,-5 z" id="path4864" style="fill:#10bafc;fill-opacity:1;fill-rule:evenodd;stroke:none;stroke-width:1.02579069px;stroke-linecap:round;stroke-linejoin:round;stroke-opacity:1"/><path d="m 13.55186,1028.862 0,2.0121 -2.01218,0 0,1.9848 2.01218,0 0,2.0062 -2.01218,0 0,1.9847 2.01218,0 0,2.0122 1.98466,0 0,-2.0122 1.97308,0 0,2.0122 1.98467,0 0,-2.0122 2.01218,0 0,-1.9847 -2.01218,0 0,-2.0062 2.01218,0 0,-1.9848 -2.01218,0 0,-2.0121 -1.98467,0 0,2.0121 -1.97308,0 0,-2.0121 z m 1.98466,3.9969 1.97308,0 0,2.0062 -1.97308,0 z" id="path4869" style="fill:#e6e7e8;fill-opacity:1;stroke:none;stroke-width:1;stroke-linecap:round;stroke-linejoin:round"/><path d="m 6.0058594,1025.2676 c -1.0922174,0 -1.9863282,0.8961 -1.9863282,1.9883 l 0,13.1054 -0.013672,2.4981 a 0.50005,0.50005 0 0 0 0,0 l 0,5 a 0.50005,0.50005 0 0 0 0.8535156,0.3535 l 5.855469,-5.8535 1.292968,-0.012 13.998047,0 c 1.092218,0 1.988282,-0.8961 1.988282,-1.9883 l 0,-13.1054 c 0,-1.0922 -0.896064,-1.9883 -1.988282,-1.9883 l -19.9999996,0 z m 0,1 19.9999996,0 c 0.555463,0 0.988282,0.4328 0.988282,0.9883 l 0,13.1054 c 0,0.5555 -0.432819,0.9883 -0.988282,0.9883 l -14,0 a 0.50005,0.50005 0 0 0 -0.0039,0 l -1.5,0.012 a 0.50005,0.50005 0 0 0 -0.349609,0.1465 l -5.1464846,5.1465 0,-3.791 0.013672,-2.4981 a 0.50005,0.50005 0 0 0 0,-0 l 0,-13.1054 c 0,-0.5555 0.4308655,-0.9883 0.9863282,-0.9883 z" id="path4745" style="color:#000000;font-style:normal;font-variant:normal;font-weight:normal;font-stretch:normal;font-size:medium;line-height:normal;font-family:sans-serif;text-indent:0;text-align:start;text-decoration:none;text-decoration-line:none;text-decoration-style:solid;text-decoration-color:#000000;letter-spacing:normal;word-spacing:normal;text-transform:none;direction:ltr;block-progression:tb;writing-mode:lr-tb;baseline-shift:baseline;text-anchor:start;white-space:normal;clip-rule:nonzero;display:inline;overflow:visible;visibility:visible;opacity:1;isolation:auto;mix-blend-mode:normal;color-interpolation:sRGB;color-interpolation-filters:linearRGB;solid-color:#000000;solid-opacity:1;fill:#000000;fill-opacity:1;fill-rule:evenodd;stroke:none;stroke-width:1;stroke-linecap:round;stroke-linejoin:round;stroke-miterlimit:4;stroke-dasharray:none;stroke-dashoffset:0;stroke-opacity:1;color-rendering:auto;image-rendering:auto;shape-rendering:auto;text-rendering:auto;enable-background:accumulate"/><path d="m 13.552734,1028.3613 a 0.50005,0.50005 0 0 0 -0.5,0.5 l 0,1.5137 -1.513672,0 a 0.50005,0.50005 0 0 0 -0.5,0.5 l 0,1.9844 a 0.50005,0.50005 0 0 0 0.5,0.5 l 1.513672,0 0,1.0058 -1.513672,0 a 0.50005,0.50005 0 0 0 -0.5,0.5 l 0,1.9844 a 0.50005,0.50005 0 0 0 0.5,0.5 l 1.513672,0 0,1.5117 a 0.50005,0.50005 0 0 0 0.5,0.5 l 1.984375,0 a 0.50005,0.50005 0 0 0 0.5,-0.5 l 0,-1.5117 0.972657,0 0,1.5117 a 0.50005,0.50005 0 0 0 0.5,0.5 l 1.984375,0 a 0.50005,0.50005 0 0 0 0.5,-0.5 l 0,-1.5117 1.511718,0 a 0.50005,0.50005 0 0 0 0.5,-0.5 l 0,-1.9844 a 0.50005,0.50005 0 0 0 -0.5,-0.5 l -1.511718,0 0,-1.0058 1.511718,0 a 0.50005,0.50005 0 0 0 0.5,-0.5 l 0,-1.9844 a 0.50005,0.50005 0 0 0 -0.5,-0.5 l -1.511718,0 0,-1.5137 a 0.50005,0.50005 0 0 0 -0.5,-0.5 l -1.984375,0 a 0.50005,0.50005 0 0 0 -0.5,0.5 l 0,1.5137 -0.972657,0 0,-1.5137 a 0.50005,0.50005 0 0 0 -0.5,-0.5 l -1.984375,0 z m 0.5,1 0.984375,0 0,1.5137 a 0.50005,0.50005 0 0 0 0.5,0.5 l 1.972657,0 a 0.50005,0.50005 0 0 0 0.5,-0.5 l 0,-1.5137 0.984375,0 0,1.5137 a 0.50005,0.50005 0 0 0 0.5,0.5 l 1.511718,0 0,0.9844 -1.511718,0 a 0.50005,0.50005 0 0 0 -0.5,0.5 l 0,2.0058 a 0.50005,0.50005 0 0 0 0.5,0.5 l 1.511718,0 0,0.9844 -1.511718,0 a 0.50005,0.50005 0 0 0 -0.5,0.5 l 0,1.5117 -0.984375,0 0,-1.5117 a 0.50005,0.50005 0 0 0 -0.5,-0.5 l -1.972657,0 a 0.50005,0.50005 0 0 0 -0.5,0.5 l 0,1.5117 -0.984375,0 0,-1.5117 a 0.50005,0.50005 0 0 0 -0.5,-0.5 l -1.513672,0 0,-0.9844 1.513672,0 a 0.50005,0.50005 0 0 0 0.5,-0.5 l 0,-2.0058 a 0.50005,0.50005 0 0 0 -0.5,-0.5 l -1.513672,0 0,-0.9844 1.513672,0 a 0.50005,0.50005 0 0 0 0.5,-0.5 l 0,-1.5137 z m 1.484375,2.9981 a 0.50005,0.50005 0 0 0 -0.5,0.5 l 0,2.0058 a 0.50005,0.50005 0 0 0 0.5,0.5 l 1.972657,0 a 0.50005,0.50005 0 0 0 0.5,-0.5 l 0,-2.0058 a 0.50005,0.50005 0 0 0 -0.5,-0.5 l -1.972657,0 z m 0.5,1 0.972657,0 0,1.0058 -0.972657,0 0,-1.0058 z" id="path4747" style="color:#000000;font-style:normal;font-variant:normal;font-weight:normal;font-stretch:normal;font-size:medium;line-height:normal;font-family:sans-serif;text-indent:0;text-align:start;text-decoration:none;text-decoration-line:none;text-decoration-style:solid;text-decoration-color:#000000;letter-spacing:normal;word-spacing:normal;text-transform:none;direction:ltr;block-progression:tb;writing-mode:lr-tb;baseline-shift:baseline;text-anchor:start;white-space:normal;clip-rule:nonzero;display:inline;overflow:visible;visibility:visible;opacity:1;isolation:auto;mix-blend-mode:normal;color-interpolation:sRGB;color-interpolation-filters:linearRGB;solid-color:#000000;solid-opacity:1;fill:#000000;fill-opacity:1;fill-rule:nonzero;stroke:none;stroke-width:1;stroke-linecap:round;stroke-linejoin:round;stroke-miterlimit:4;stroke-dasharray:none;stroke-dashoffset:0;stroke-opacity:1;color-rendering:auto;image-rendering:auto;shape-rendering:auto;text-rendering:auto;enable-background:accumulate"/></g></g></svg>