<?xml version="1.0" encoding="UTF-8" standalone="no"?>
<svg
   xmlns:dc="http://purl.org/dc/elements/1.1/"
   xmlns:cc="http://creativecommons.org/ns#"
   xmlns:rdf="http://www.w3.org/1999/02/22-rdf-syntax-ns#"
   xmlns:svg="http://www.w3.org/2000/svg"
   xmlns="http://www.w3.org/2000/svg"
   xmlns:sodipodi="http://sodipodi.sourceforge.net/DTD/sodipodi-0.dtd"
   xmlns:inkscape="http://www.inkscape.org/namespaces/inkscape"
   width="21.922276mm"
   height="12.892472mm"
   viewBox="0 0 21.922276 12.892472"
   version="1.1"
   id="svg8037"
   inkscape:version="1.0.1 (1.0.1+r73)"
   sodipodi:docname="design_16.svg">
  <defs
     id="defs8031" />
  <sodipodi:namedview
     id="base"
     pagecolor="#ffffff"
     bordercolor="#666666"
     borderopacity="1.0"
     inkscape:pageopacity="0.0"
     inkscape:pageshadow="2"
     inkscape:zoom="1.33"
     inkscape:cx="13.304904"
     inkscape:cy="49.891466"
     inkscape:document-units="mm"
     inkscape:current-layer="layer1"
     inkscape:document-rotation="0"
     showgrid="false"
     fit-margin-top="1"
     fit-margin-right="1"
     fit-margin-bottom="1"
     fit-margin-left="1"
     inkscape:window-width="1853"
     inkscape:window-height="1025"
     inkscape:window-x="67"
     inkscape:window-y="27"
     inkscape:window-maximized="1" />
  <metadata
     id="metadata8034">
    <rdf:RDF>
      <cc:Work
         rdf:about="">
        <dc:format>image/svg+xml</dc:format>
        <dc:type
           rdf:resource="http://purl.org/dc/dcmitype/StillImage" />
        <dc:title></dc:title>
      </cc:Work>
    </rdf:RDF>
  </metadata>
  <g
     inkscape:label="Capa 1"
     inkscape:groupmode="layer"
     id="layer1"
     transform="translate(-102.31309,-63.349673)">
    <g
       id="g12946"
       transform="matrix(0.35277777,0,0,-0.35277777,-58.972713,153.09138)">
      <g
         id="g2720"
         transform="translate(511.6726,236.5353)">
        <path
           d="m 0,0 -15.053,-6.005 c 0,0 -4.017,-1.542 -4.017,-5.825 0,-4.282 2.053,-3.664 2.053,-3.664 l 20.144,8.381 c 0,0 1.418,0.149 1.418,3.487 0,2.29 -1.432,2.071 -1.432,2.071 z"
           style="fill:#dadada;fill-opacity:1;fill-rule:nonzero;stroke:none"
           id="path2722" />
      </g>
      <g
         id="g2724"
         transform="translate(462.2199,233.7902)">
        <path
           d="m 0,0 31.988,-12.935 c -3.091,2.038 -0.926,6.399 -0.926,6.399 L -1.06,6.415 C -1.06,6.415 -3.607,1.501 0,0"
           style="fill:#dadada;fill-opacity:1;fill-rule:nonzero;stroke:none"
           id="path2726" />
      </g>
      <g
         id="g2728"
         transform="translate(493.5354,220.8405)">
        <path
           d="m 0,0 c -0.034,0 -0.068,0.007 -0.102,0.02 -3.791,1.578 -12.273,4.994 -19.756,8.009 -5.387,2.17 -10.039,4.044 -11.559,4.676 -1.981,0.824 -2.573,2.768 -1.71,5.62 0.247,0.816 0.632,1.578 1.144,2.263 0.088,0.118 0.255,0.141 0.371,0.054 0.118,-0.088 0.142,-0.254 0.054,-0.371 -0.476,-0.637 -0.832,-1.342 -1.061,-2.099 -0.783,-2.589 -0.31,-4.264 1.405,-4.977 1.517,-0.631 6.169,-2.505 11.554,-4.674 C -12.175,5.506 -3.691,2.089 0.102,0.51 0.237,0.454 0.302,0.298 0.245,0.163 0.202,0.062 0.104,0 0,0"
           style="fill:#41404d;fill-opacity:1;fill-rule:nonzero;stroke:none"
           id="path2730" />
      </g>
      <g
         id="g2732"
         transform="translate(464.7536,243.3268)">
        <path
           d="m 0,0 c -0.104,0 -0.202,0.062 -0.244,0.164 -0.057,0.135 0.007,0.29 0.142,0.347 l 18.494,7.694 c 0.064,0.026 0.139,0.026 0.203,0 L 21.018,7.196 C 21.153,7.14 21.218,6.984 21.161,6.849 21.104,6.714 20.948,6.653 20.814,6.706 L 18.493,7.672 0.102,0.021 C 0.069,0.007 0.034,0 0,0"
           style="fill:#41404d;fill-opacity:1;fill-rule:nonzero;stroke:none"
           id="path2734" />
      </g>
      <g
         id="g2736"
         transform="translate(492.4929,247.174)">
        <path
           d="m 0,0 c -0.034,0 -0.068,0.007 -0.102,0.021 l -2.094,0.871 c -0.136,0.056 -0.2,0.212 -0.143,0.347 0.056,0.135 0.213,0.197 0.346,0.143 L 0.102,0.511 C 0.237,0.454 0.301,0.299 0.245,0.164 0.202,0.062 0.104,0 0,0"
           style="fill:#41404d;fill-opacity:1;fill-rule:nonzero;stroke:none"
           id="path2738" />
      </g>
      <g
         id="g2740"
         transform="translate(494.155,220.675)">
        <path
           d="m 0,0 c -0.567,0 -1.102,0.312 -1.351,0.845 -0.398,0.853 -0.555,1.931 -0.465,3.205 0.19,2.744 1.975,5.209 4.547,6.28 l 17.21,7.16 -20.482,8.52 c -0.136,0.056 -0.2,0.212 -0.143,0.347 0.056,0.136 0.211,0.198 0.346,0.143 l 21.07,-8.765 c 0.1,-0.042 0.165,-0.138 0.165,-0.245 0,-0.108 -0.065,-0.204 -0.165,-0.245 L 2.934,9.839 C 0.547,8.846 -1.111,6.559 -1.288,4.012 -1.371,2.83 -1.23,1.84 -0.871,1.071 -0.653,0.607 -0.092,0.405 0.399,0.611 l 20.145,8.381 c 0.495,0.207 0.874,0.612 1.014,1.084 0.335,1.142 0.391,2.774 -0.165,3.546 -0.196,0.27 -0.448,0.407 -0.771,0.418 -0.011,0.001 -0.022,0.001 -0.034,0.001 -1.342,0 -7.732,-2.497 -17.132,-6.7 C 2.709,7.007 1.821,6.17 1.517,5.514 1.116,4.646 1.215,3.948 1.49,3.639 1.669,3.438 1.925,3.386 2.228,3.486 l 15.832,6.556 c 0.135,0.056 0.29,-0.007 0.347,-0.143 C 18.463,9.764 18.399,9.608 18.263,9.552 L 2.414,2.989 C 1.887,2.815 1.415,2.926 1.094,3.285 0.617,3.82 0.594,4.782 1.036,5.737 1.433,6.596 2.489,7.49 3.241,7.826 c 5.653,2.527 15.385,6.745 17.356,6.745 0.015,0 0.029,0 0.043,0 0.485,-0.017 0.894,-0.238 1.183,-0.639 0.663,-0.919 0.625,-2.711 0.244,-4.006 C 21.88,9.292 21.399,8.773 20.747,8.502 L 0.602,0.121 C 0.405,0.039 0.2,0 0,0"
           style="fill:#41404d;fill-opacity:1;fill-rule:nonzero;stroke:none"
           id="path2742" />
      </g>
      <g
         id="g2744"
         transform="translate(515.2297,234.6423)">
        <path
           d="m 0,0 c -0.034,0 -0.069,0.006 -0.102,0.02 l -4.136,1.721 c -0.136,0.056 -0.2,0.212 -0.143,0.347 0.056,0.135 0.212,0.198 0.346,0.143 L 0.102,0.51 C 0.237,0.454 0.301,0.298 0.245,0.163 0.202,0.062 0.104,0 0,0"
           style="fill:#41404d;fill-opacity:1;fill-rule:nonzero;stroke:none"
           id="path2746" />
      </g>
      <g
         id="g2748"
         transform="translate(495.7512,223.6491)">
        <path
           d="m 0,0 c -0.034,0 -0.068,0.006 -0.102,0.02 l -3.086,1.284 c -0.136,0.056 -0.2,0.212 -0.143,0.347 0.057,0.135 0.212,0.199 0.346,0.142 L 0.102,0.51 C 0.237,0.454 0.301,0.298 0.244,0.163 0.202,0.062 0.104,0 0,0"
           style="fill:#41404d;fill-opacity:1;fill-rule:nonzero;stroke:none"
           id="path2750" />
      </g>
      <g
         id="g2752"
         transform="translate(512.3167,230.2072)">
        <path
           d="m 0,0 c -0.033,0 -0.067,0.006 -0.101,0.02 l -4.952,2.022 c -0.136,0.056 -0.2,0.211 -0.145,0.347 0.055,0.135 0.207,0.202 0.346,0.145 L 0.1,0.511 C 0.236,0.456 0.3,0.3 0.246,0.165 0.203,0.062 0.104,0 0,0"
           style="fill:#41404d;fill-opacity:1;fill-rule:nonzero;stroke:none"
           id="path2754" />
      </g>
      <g
         id="g2756"
         transform="translate(494.7097,243.5988)">
        <path
           d="M 0,0 -12.467,5.026 -19.073,2.278 -6.606,-2.748 Z"
           style="fill:#f4c151;fill-opacity:1;fill-rule:nonzero;stroke:none"
           id="path2758" />
      </g>
      <g
         id="g2760"
         transform="translate(476.3366,245.881)">
        <path
           d="m 0,0 11.765,-4.743 5.907,2.457 -11.764,4.743 z m 11.766,-5.295 c -0.033,0 -0.067,0.006 -0.099,0.019 L -0.8,-0.25 c -0.099,0.041 -0.165,0.137 -0.166,0.245 -0.001,0.108 0.065,0.205 0.164,0.246 l 6.607,2.748 c 0.064,0.027 0.136,0.027 0.2,0.001 l 12.467,-5.027 c 0.1,-0.04 0.165,-0.136 0.166,-0.244 10e-4,-0.108 -0.064,-0.205 -0.163,-0.247 l -6.607,-2.747 c -0.032,-0.014 -0.067,-0.02 -0.102,-0.02"
           style="fill:#41404d;fill-opacity:1;fill-rule:nonzero;stroke:none"
           id="path2762" />
      </g>
      <g
         id="g2764"
         transform="translate(485.2004,239.4465)">
        <path
           d="m 0,0 c -0.033,0 -0.066,0.006 -0.1,0.019 l -12.466,5.026 c -0.136,0.055 -0.202,0.209 -0.146,0.345 0.054,0.137 0.206,0.203 0.344,0.148 L 0.1,0.511 C 0.235,0.457 0.3,0.302 0.246,0.167 0.204,0.062 0.104,0 0,0"
           style="fill:#41404d;fill-opacity:1;fill-rule:nonzero;stroke:none"
           id="path2766" />
      </g>
      <g
         id="g2768"
         transform="translate(482.3484,238.0729)">
        <path
           d="m 0,0 c -0.033,0 -0.066,0.006 -0.1,0.019 l -12.466,5.026 c -0.136,0.055 -0.202,0.209 -0.146,0.345 0.054,0.137 0.206,0.202 0.345,0.148 L 0.1,0.511 C 0.235,0.457 0.3,0.302 0.246,0.166 0.204,0.062 0.104,0 0,0"
           style="fill:#41404d;fill-opacity:1;fill-rule:nonzero;stroke:none"
           id="path2770" />
      </g>
      <g
         id="g2772"
         transform="translate(476.115,238.0627)">
        <path
           d="m 0,0 c -0.033,0 -0.066,0.006 -0.1,0.019 l -9.084,3.663 c -0.136,0.055 -0.201,0.209 -0.146,0.345 0.055,0.137 0.206,0.202 0.345,0.147 L 0.1,0.511 C 0.235,0.456 0.3,0.302 0.246,0.166 0.204,0.062 0.104,0 0,0"
           style="fill:#41404d;fill-opacity:1;fill-rule:nonzero;stroke:none"
           id="path2774" />
      </g>
      <g
         id="g2776"
         transform="translate(498.8357,234.2824)">
        <path
           d="M 0,0 -10.772,4.383 -13.855,3.009 -3.083,-1.374 Z"
           style="fill:#f4c151;fill-opacity:1;fill-rule:nonzero;stroke:none"
           id="path2778" />
      </g>
      <g
         id="g2780"
         transform="translate(485.6574,237.3029)">
        <path
           d="M 0,0 10.09,-4.106 12.502,-3.031 2.41,1.075 Z m 10.096,-4.659 c -0.034,0 -0.069,0.006 -0.1,0.019 l -10.772,4.384 c -0.1,0.039 -0.164,0.134 -0.166,0.241 -0.002,0.106 0.06,0.203 0.157,0.246 l 3.082,1.374 c 0.067,0.028 0.143,0.03 0.207,0.003 l 10.774,-4.383 c 0.099,-0.039 0.164,-0.135 0.166,-0.241 0.002,-0.107 -0.06,-0.203 -0.157,-0.247 l -3.083,-1.374 c -0.035,-0.014 -0.071,-0.022 -0.108,-0.022"
           style="fill:#41404d;fill-opacity:1;fill-rule:nonzero;stroke:none"
           id="path2782" />
      </g>
      <g
         id="g2784"
         transform="translate(508.4944,237.676)">
        <path
           d="M 0,0 C -0.033,0 -0.066,0.006 -0.099,0.019 L -11.983,4.81 c -0.136,0.055 -0.201,0.21 -0.146,0.345 0.054,0.137 0.208,0.201 0.345,0.147 L 0.1,0.511 C 0.235,0.457 0.301,0.302 0.246,0.167 0.204,0.062 0.105,0 0,0"
           style="fill:#41404d;fill-opacity:1;fill-rule:nonzero;stroke:none"
           id="path2786" />
      </g>
      <g
         id="g2788"
         transform="translate(499.4797,238.7873)">
        <path
           d="M 0,0 C -0.033,0 -0.066,0.006 -0.1,0.019 L -5.82,2.325 C -5.956,2.38 -6.021,2.534 -5.966,2.67 -5.912,2.807 -5.76,2.871 -5.621,2.817 L 0.1,0.512 C 0.235,0.457 0.3,0.302 0.246,0.167 0.204,0.063 0.104,0 0,0"
           style="fill:#41404d;fill-opacity:1;fill-rule:nonzero;stroke:none"
           id="path2790" />
      </g>
      <g
         id="g2792"
         transform="translate(501.8571,235.3054)">
        <path
           d="m 0,0 c -0.033,0 -0.066,0.006 -0.1,0.019 l -10.948,4.415 c -0.136,0.054 -0.202,0.209 -0.146,0.344 0.053,0.137 0.207,0.203 0.344,0.148 L 0.099,0.511 C 0.235,0.457 0.3,0.302 0.246,0.167 0.204,0.062 0.104,0 0,0"
           style="fill:#41404d;fill-opacity:1;fill-rule:nonzero;stroke:none"
           id="path2794" />
      </g>
    </g>
  </g>
</svg>
