<svg id="Layer_1" data-name="Layer 1" xmlns="http://www.w3.org/2000/svg" viewBox="0 0 64 64"><defs><style>.cls-1{fill:#d9ebf4;}.cls-2{fill:#e1eef4;}.cls-14,.cls-3{fill:none;stroke:#041256;stroke-linecap:round;stroke-linejoin:round;}.cls-3{stroke-width:2px;}.cls-4{fill:#847e7c;}.cls-5{fill:#af9f9a;}.cls-6{fill:#727171;}.cls-7{fill:#78f4c7;}.cls-8{fill:#606060;}.cls-9{fill:#64b9cc;}.cls-10{fill:#041256;}.cls-11{fill:#142668;}.cls-12{fill:#c18267;}.cls-13{fill:#a8655d;}.cls-15{fill:#dda183;}.cls-16{fill:#d39276;}.cls-17{fill:#e5b498;}.cls-18{fill:#6d534d;}.cls-19{fill:#594845;}.cls-20{fill:#50d190;}.cls-21{fill:#3aba90;}.cls-22{fill:#8bf7f1;}.cls-23{fill:#74e2a8;}.cls-24{fill:#26aaa0;}.cls-25{fill:#fff;}</style></defs><title>man, avatar, user, account, confirm, approve, complete</title><path class="cls-1" d="M50.63,35v4.28a1.18,1.18,0,0,1-1.18,1.18H44.08a1.18,1.18,0,0,0-1.18,1.18v.82a1.18,1.18,0,0,1-1.18,1.18H40.16A1.18,1.18,0,0,1,39,42.48h0A1.18,1.18,0,0,0,37.8,41.3H33.63a.46.46,0,0,1-.46-.46v-3.2A1.18,1.18,0,0,0,32,36.45h0a5.88,5.88,0,0,0-5.88,5.88v1.05a1.18,1.18,0,0,1-1.18,1.18H22.8a1.18,1.18,0,0,1-1.18-1.18V38.24a1.18,1.18,0,0,0-1.18-1.18H14.56a1.18,1.18,0,0,1-1.18-1.18V29.33a1.18,1.18,0,0,0-1.18-1.18h-8A1.18,1.18,0,0,0,3,29.33V59.81A1.18,1.18,0,0,0,4.18,61H59.82A1.18,1.18,0,0,0,61,59.81V35a1.18,1.18,0,0,0-1.18-1.18h-8A1.18,1.18,0,0,0,50.63,35Z"/><path class="cls-2" d="M51.43,10.42h0a.5.5,0,0,1,.5-.5H54.6a.83.83,0,0,1,.83.83h0a.83.83,0,0,1-.83.83H53.27a.5.5,0,0,0-.5.5h0a.5.5,0,0,1-.5.5H49.6a.83.83,0,0,1-.83-.83h0a.83.83,0,0,1,.83-.83h1.33A.5.5,0,0,0,51.43,10.42Z"/><path class="cls-2" d="M56.27,14.19h0A.29.29,0,0,0,56,13.9H54.43a.48.48,0,0,0-.48.48h0a.48.48,0,0,0,.48.48h.77a.29.29,0,0,1,.29.29h0a.29.29,0,0,0,.29.29h1.55a.48.48,0,0,0,.48-.48h0a.48.48,0,0,0-.48-.48h-.77A.29.29,0,0,1,56.27,14.19Z"/><circle class="cls-2" cx="52.97" cy="22.1" r="0.7"/><circle class="cls-2" cx="52.09" cy="15.94" r="0.67"/><circle class="cls-2" cx="48.76" cy="17.31" r="1.08"/><circle class="cls-2" cx="48.11" cy="8.95" r="0.35"/><circle class="cls-2" cx="59.1" cy="17.31" r="0.43"/><circle class="cls-2" cx="55.88" cy="22.96" r="1.12"/><circle class="cls-2" cx="60.24" cy="14.29" r="0.39"/><path class="cls-2" d="M14,7.55h0a.64.64,0,0,0-.64-.64H9.92A1.06,1.06,0,0,0,8.86,8h0A1.06,1.06,0,0,0,9.92,9h1.7a.64.64,0,0,1,.64.64h0a.64.64,0,0,0,.64.64h3.4a1.06,1.06,0,0,0,1.06-1.06h0A1.06,1.06,0,0,0,16.3,8.19H14.6A.64.64,0,0,1,14,7.55Z"/><path class="cls-2" d="M7.8,12.36h0A.37.37,0,0,1,8.17,12h2a.62.62,0,0,1,.62.62h0a.62.62,0,0,1-.62.62h-1a.37.37,0,0,0-.37.37h0a.37.37,0,0,1-.37.37h-2a.62.62,0,0,1-.62-.62h0a.62.62,0,0,1,.62-.62h1A.37.37,0,0,0,7.8,12.36Z"/><circle class="cls-2" cx="12" cy="22.44" r="0.89"/><circle class="cls-2" cx="13.12" cy="14.59" r="0.86"/><circle class="cls-2" cx="17.37" cy="16.34" r="1.38"/><circle class="cls-2" cx="18.2" cy="5.67" r="0.45"/><circle class="cls-2" cx="4.2" cy="16.34" r="0.54"/><circle class="cls-2" cx="8.3" cy="23.54" r="1.43"/><circle class="cls-2" cx="6.32" cy="10.91" r="0.49"/><circle class="cls-2" cx="54.63" cy="38.88" r="2.42"/><circle class="cls-2" cx="57.77" cy="31.24" r="1.77"/><line class="cls-3" x1="3" y1="61" x2="61" y2="61"/><path class="cls-4" d="M46.44,50.59c0-7-5.8-13-13.93-15.29a2.21,2.21,0,0,1-1.61-2.12V29.4H19.05v3.76a2.21,2.21,0,0,1-1.61,2.12C9.31,37.61,3.51,43.58,3.51,50.59V61h43Z"/><path class="cls-5" d="M10.18,38.77c-4.1,3-6.67,7.16-6.67,11.81V61H6.46V52a13.18,13.18,0,0,1,2.3-7.35,8.72,8.72,0,0,0,1.42-4.84Z"/><path class="cls-5" d="M19.05,29.4v3.76a2.2,2.2,0,0,1-1.59,2.12A23.74,23.74,0,0,0,11.31,38v1.75a.87.87,0,0,0,1.41.69,23.07,23.07,0,0,1,7.69-3.78A2.2,2.2,0,0,0,22,34.55V30.79h8.9V29.4Z"/><path class="cls-6" d="M46.49,61l0-7.82L45.4,45.54c-2-4.73-6.8-8.51-12.89-10.25a2.21,2.21,0,0,1-1.61-2.12v-1L18.7,37.23v.1a12.93,12.93,0,0,0,3.79,9.15h0a15.65,15.65,0,0,1,4.58,11.07V61Z"/><path class="cls-7" d="M46.44,50.59c0-7-5.8-13-13.93-15.29a2.21,2.21,0,0,1-1.61-2.12V29.4H29v3.76a2.21,2.21,0,0,0,1.61,2.12c8.14,2.32,13.93,8.29,13.93,15.29l0,10.41h1.94Z"/><path class="cls-5" d="M37.69,37.44a23.55,23.55,0,0,0-3.4-1.56,2.22,2.22,0,0,0,1.16.8C36.23,36.9,37,37.16,37.69,37.44Z"/><polygon class="cls-6" points="3.51 61 46.49 61 46.48 57.93 3.51 57.93 3.51 61"/><path class="cls-8" d="M46.49,61V57.93H43.89A13.65,13.65,0,0,1,30.75,48h0a13.65,13.65,0,0,1,.52-8.9l1.29-3.12L26.82,38.5,25,40.81l-.14,19.6,2.24-.23V61Z"/><polygon class="cls-9" points="46.48 57.93 44.54 57.93 44.55 61 46.49 61 46.48 57.93"/><rect class="cls-4" x="3.51" y="57.93" width="2.95" height="3.06"/><path class="cls-10" d="M29.56,61,26.14,40.93a3,3,0,1,0-2.32,0L20.39,61Z"/><polygon class="cls-11" points="26.65 43.97 26.45 42.78 23.38 43.46 23.16 44.74 26.65 43.97"/><polygon class="cls-11" points="27.23 47.37 27.03 46.19 22.75 47.14 22.54 48.42 27.23 47.37"/><polygon class="cls-11" points="27.81 50.78 27.61 49.59 22.13 50.82 21.91 52.1 27.81 50.78"/><polygon class="cls-11" points="28.4 54.19 28.19 53 21.5 54.5 21.28 55.78 28.4 54.19"/><polygon class="cls-11" points="28.98 57.6 28.77 56.41 20.87 58.17 20.65 59.46 28.98 57.6"/><polygon class="cls-11" points="29.56 61 29.36 59.82 24.08 61 29.56 61"/><path class="cls-5" d="M16.93,35.45,22,40.54a.9.9,0,0,0,1.37-.13L25,38.1l-5.92-6.22v1.29A2.22,2.22,0,0,1,17,35.37Z"/><path class="cls-5" d="M33.06,35.45,28,40.54a.9.9,0,0,1-1.37-.13L25,38.1l5.92-6.22v1.29A2.22,2.22,0,0,0,33,35.37Z"/><path class="cls-7" d="M29.38,33.64s0,0,0-.07l.34-.28-.33.35c0,1.14,1.2,3,2.36,3.14l1.32-1.32,0-.08a2.22,2.22,0,0,1-2.09-2.21V31.87L25,38.1l0,.07Z"/><polygon class="cls-12" points="19.05 32.18 24.97 38.1 30.9 32.17 30.9 29.4 19.05 29.4 19.05 32.18"/><polygon class="cls-13" points="25 38.07 30.9 32.17 30.9 29.4 25 29.4 25 38.07"/><path class="cls-13" d="M19.05,31.06a10.57,10.57,0,0,0,1.42,1l2.06,1.19a5,5,0,0,0,5,0l2.06-1.19a10.58,10.58,0,0,0,1.34-.93V29.4H19.05Z"/><polygon class="cls-7" points="25 29.4 25 30.8 29.37 30.8 29.37 33.57 25 37.94 25 38.07 30.9 32.17 30.9 29.4 25 29.4"/><polyline class="cls-14" points="30.9 32.17 30.9 29.4 19.05 29.4 19.05 32.18"/><path class="cls-10" d="M19.05,32.18a62.4,62.4,0,0,1,6.27,5.57h-.71a61.68,61.68,0,0,1,6.28-5.57,61.68,61.68,0,0,1-5.57,6.28.5.5,0,0,1-.7,0h0A62.4,62.4,0,0,1,19.05,32.18Z"/><path class="cls-3" d="M46.44,50.59c0-7-5.8-13-13.93-15.29a2.21,2.21,0,0,1-1.61-2.12V29.4H19.05v3.76a2.21,2.21,0,0,1-1.61,2.12C9.31,37.61,3.51,43.58,3.51,50.59V61h43Z"/><path class="cls-15" d="M35.13,21.5V18.26a10.11,10.11,0,0,0-6.8-9.55h0a10.12,10.12,0,0,0-6.64,0h0a10.11,10.11,0,0,0-6.79,9.55V21.5a10.9,10.9,0,0,0,5.45,9.44l2.12,1.22a5.1,5.1,0,0,0,5.1,0l2.12-1.22A10.9,10.9,0,0,0,35.13,21.5Z"/><path class="cls-16" d="M35.13,21.5V18.26a10.1,10.1,0,0,0-.35-2.6l-9-2.19-3.46.71-5.71,4,3,1.59A9.91,9.91,0,0,1,25,28.59v4.25a5.09,5.09,0,0,0,2.59-.68l1.66-1,2.75-2A10.9,10.9,0,0,0,35.13,21.5Z"/><path class="cls-7" d="M28.34,8.71a10.11,10.11,0,0,0-4.28-.51,10.09,10.09,0,0,1,9.15,10.06V21.5a10.9,10.9,0,0,1-5.45,9.44l-2.12,1.22a5.08,5.08,0,0,1-1.59.58,5.09,5.09,0,0,0,3.51-.58l2.12-1.22a10.9,10.9,0,0,0,5.45-9.44V18.26A10.11,10.11,0,0,0,28.34,8.71Z"/><path class="cls-17" d="M25,32.37l-2.12-1.22a10.9,10.9,0,0,1-5.45-9.44V18.48a10.08,10.08,0,0,1,9.68-10.1A10.1,10.1,0,0,0,14.9,18.26V21.5a10.9,10.9,0,0,0,5.45,9.44l2.12,1.22a5.09,5.09,0,0,0,3.41.6A5.07,5.07,0,0,1,25,32.37Z"/><path class="cls-3" d="M35.13,21.5V18.26a10.11,10.11,0,0,0-6.8-9.55h0a10.12,10.12,0,0,0-6.64,0h0a10.11,10.11,0,0,0-6.79,9.55V21.5a10.9,10.9,0,0,0,5.45,9.44l2.12,1.22a5.1,5.1,0,0,0,5.1,0l2.12-1.22A10.9,10.9,0,0,0,35.13,21.5Z"/><path class="cls-15" d="M34.77,22.24h-.9V17.63H36a1.7,1.7,0,0,1,1.7,1.7h0A2.91,2.91,0,0,1,34.77,22.24Z"/><path class="cls-7" d="M36.19,17.65a1.69,1.69,0,0,1,.1.55,2.9,2.9,0,0,1-2.42,2.86v1.18h.9a2.91,2.91,0,0,0,2.91-2.91A1.7,1.7,0,0,0,36.19,17.65Z"/><path class="cls-3" d="M33.87,17.63H36a1.7,1.7,0,0,1,1.7,1.7h0a2.91,2.91,0,0,1-2.91,2.91"/><path class="cls-18" d="M27.25,4.89h2.43A7.07,7.07,0,0,1,36.76,12V18a0,0,0,0,1,0,0H34a6.76,6.76,0,0,1-6.76-6.76V4.89a0,0,0,0,1,0,0Z"/><path class="cls-19" d="M29.21,7.12h-2v4.14A6.76,6.76,0,0,0,34,18h2.28V14.19A7.07,7.07,0,0,0,29.21,7.12Z"/><path class="cls-7" d="M29.78,4.9a7.07,7.07,0,0,1,5.3,6.84v6.05h-2.8A6.74,6.74,0,0,0,34,18h2.75V12A7.07,7.07,0,0,0,29.78,4.9Z"/><path class="cls-3" d="M27.25,4.89h2.43A7.07,7.07,0,0,1,36.76,12V18a0,0,0,0,1,0,0H34a6.76,6.76,0,0,1-6.76-6.76V4.89a0,0,0,0,1,0,0Z"/><path class="cls-19" d="M21.41,17.63H13.28v-7.2A7.43,7.43,0,0,1,20.71,3h5.4a5,5,0,0,1,5,5h0A9.66,9.66,0,0,1,21.41,17.63Z"/><path class="cls-18" d="M15.84,12a6.72,6.72,0,0,1,6.72-6.72h6.11a4.93,4.93,0,0,1,1.79.35A5,5,0,0,0,26.11,3h-5.4a7.43,7.43,0,0,0-7.43,7.43v7.2h2.57Z"/><path class="cls-3" d="M29.31,13.54a9.65,9.65,0,0,1-7.89,4.09H13.28V11.47A8.46,8.46,0,0,1,21.74,3h4.37a5,5,0,0,1,5,5h0"/><path class="cls-17" d="M15.18,22.24h.9V17.63H14a1.7,1.7,0,0,0-1.7,1.7h0A2.91,2.91,0,0,0,15.18,22.24Z"/><path class="cls-3" d="M16.08,17.63H14a1.7,1.7,0,0,0-1.7,1.7h0a2.91,2.91,0,0,0,2.91,2.91"/><path class="cls-10" d="M15,17.79l.84,2.42a.35.35,0,0,0,.65,0l.84-2.42Z"/><path class="cls-10" d="M32.74,17.79l.84,2.42a.35.35,0,0,0,.65,0l.84-2.42Z"/><circle class="cls-10" cx="21" cy="20.44" r="0.61"/><circle class="cls-10" cx="29.04" cy="20.44" r="0.61"/><line class="cls-3" x1="9.71" y1="52.1" x2="9.71" y2="61"/><line class="cls-3" x1="40.29" y1="52.1" x2="40.29" y2="61"/><circle class="cls-20" cx="51.16" cy="26.35" r="9.63"/><path class="cls-21" d="M48.75,35.66V32.51a.74.74,0,0,0-.74-.74H45.12a.74.74,0,0,0-.74.74v.68A9.61,9.61,0,0,0,48.75,35.66Z"/><path class="cls-22" d="M57.77,19.37A9.62,9.62,0,0,1,43.61,32.31,9.62,9.62,0,1,0,57.77,19.37Z"/><path class="cls-23" d="M42.95,27.52a9.63,9.63,0,0,1,15-8,9.63,9.63,0,1,0-12.2,14.78A9.6,9.6,0,0,1,42.95,27.52Z"/><circle class="cls-21" cx="51.16" cy="26.35" r="6.16"/><path class="cls-24" d="M50.43,30.3h0a1.13,1.13,0,0,1-.8-.33l-1.9-1.9a1.13,1.13,0,0,1,1.6-1.6l1.1,1.1,3.24-3.24a1.13,1.13,0,1,1,1.6,1.6l-4,4A1.13,1.13,0,0,1,50.43,30.3Z"/><circle class="cls-3" cx="51.16" cy="26.35" r="9.63"/><path class="cls-25" d="M50.09,29.51h0a1.13,1.13,0,0,1-.8-.33l-1.9-1.9a1.13,1.13,0,0,1,1.6-1.6l1.1,1.1,3.24-3.24a1.13,1.13,0,0,1,1.6,1.6l-4,4A1.13,1.13,0,0,1,50.09,29.51Z"/></svg>